<?xml version="1.0" standalone="no"?>
<!DOCTYPE svg PUBLIC "-//W3C//DTD SVG 20010904//EN"
 "http://www.w3.org/TR/2001/REC-SVG-20010904/DTD/svg10.dtd">
<svg version="1.0" xmlns="http://www.w3.org/2000/svg"
 width="1426.000000pt" height="1426.000000pt" viewBox="0 0 1426.000000 1426.000000"
 preserveAspectRatio="xMidYMid meet">
<metadata>
Created by potrace 1.11, written by Peter Selinger 2001-2013
</metadata>
<g transform="translate(0.000000,1426.000000) scale(0.100000,-0.100000)"
fill="#000000" stroke="none">
<path d="M6690 14249 c-2103 -138 -4004 -1165 -5264 -2843 -645 -859 -1083
-1842 -1291 -2896 -224 -1137 -166 -2315 170 -3438 253 -848 693 -1687 1250
-2381 332 -414 776 -855 1176 -1167 675 -527 1390 -908 2199 -1173 912 -298
1915 -408 2879 -315 1468 140 2840 724 3966 1688 168 145 504 474 659 646 660
733 1151 1580 1462 2515 724 2184 354 4577 -996 6436 -359 493 -823 981 -1300
1365 -1078 867 -2377 1401 -3745 1539 -350 35 -843 45 -1165 24z m-1590 -2459
c368 -33 718 -174 1025 -415 104 -82 276 -258 352 -362 145 -196 299 -519 378
-789 51 -176 68 -302 68 -519 1 -307 -33 -472 -213 -1035 -232 -725 -292
-1049 -293 -1598 l-1 -244 25 -19 c40 -30 464 -243 614 -307 389 -168 697
-256 1025 -294 135 -15 582 -17 1145 -4 419 9 523 2 702 -50 164 -47 333 -153
426 -267 91 -111 170 -277 203 -422 23 -102 23 -300 0 -402 -55 -252 -174
-462 -376 -664 -132 -133 -247 -221 -400 -308 -349 -201 -778 -326 -1270 -371
-155 -15 -520 -15 -650 0 -765 85 -1510 428 -2200 1014 -148 125 -455 436
-590 596 -855 1015 -1369 2325 -1504 3835 -43 474 -45 968 -6 1230 66 446 215
780 455 1021 218 219 490 344 815 373 124 12 144 12 270 1z m-736 -6073 c10
-12 219 -275 465 -585 352 -445 447 -570 449 -595 1 -22 -102 -308 -331 -916
-363 -966 -349 -935 -419 -915 -19 6 -38 20 -44 34 -11 22 -255 2841 -254
2931 0 73 86 102 134 46z m5858 -1819 c17 -13 508 -1342 508 -1374 0 -27 -30
-54 -59 -53 -32 0 -1290 932 -1308 969 -24 49 -13 56 403 267 220 112 408 203
420 203 11 0 27 -6 36 -12z"/>
<path d="M4785 11306 c-405 -79 -658 -390 -750 -921 -40 -234 -38 -797 5
-1005 99 -484 451 -1027 1010 -1555 225 -213 487 -426 756 -615 l129 -90 12
191 c31 524 94 827 315 1514 162 506 194 663 185 925 -3 95 -12 197 -22 240
-46 209 -173 506 -294 686 -203 304 -550 537 -924 619 -100 22 -333 28 -422
11z"/>
<path d="M4250 7971 c0 -17 108 -375 149 -491 288 -833 733 -1560 1301 -2131
189 -190 326 -309 524 -456 632 -470 1298 -713 1950 -713 356 0 682 49 976
146 566 187 950 567 950 939 0 177 -99 345 -243 410 -104 48 -191 59 -457 60
-135 0 -393 -6 -575 -13 -753 -31 -1185 35 -1786 273 -987 391 -2017 1108
-2686 1868 -56 64 -103 113 -103 108z"/>
</g>
</svg>
